<svg width="34" height="34" viewBox="0 0 34 34" fill="none" xmlns="http://www.w3.org/2000/svg">
<path d="M1.56496e-06 17.091V16.909C1.52829e-06 14.9752 -0.00186 13.4199 0.122949 12.1539C0.250759 10.8575 0.520012 9.7428 1.13081 8.70628C1.74406 7.66564 2.58283 6.90495 3.64515 6.19602C4.67688 5.50752 6.01263 4.81008 7.65915 3.94665L10.77 2.3146C12.1121 1.61079 13.2039 1.03691 14.1457 0.647662C15.1145 0.247301 16.0202 0 17.0122 0C18.0043 1.72369e-06 18.9099 0.247302 19.8787 0.647662C20.8205 1.03691 21.9123 1.61079 23.2544 2.3146L26.3653 3.94665C28.0118 4.81007 29.3476 5.50752 30.3793 6.19602C31.4416 6.90496 32.2804 7.66564 32.8936 8.70628C33.7481 10.1564 33.9408 11.7814 33.9994 13.8497C34.0222 14.6535 33.3884 15.324 32.584 15.3467C31.7797 15.3693 31.1094 14.7361 31.0866 13.9323C31.0298 11.9251 30.8343 10.9516 30.3823 10.1844C30.0663 9.64812 29.6039 9.18115 28.7605 8.61831C27.8865 8.03504 26.7117 7.4168 25.0114 6.52516L21.9005 4.89387C20.512 4.1657 19.5553 3.66519 18.7646 3.33842C18.0008 3.02279 17.489 2.91221 17.0122 2.91221C16.5354 2.91221 16.0236 3.02279 15.2599 3.33842C14.4691 3.66519 13.5125 4.1657 12.1239 4.89387L9.01308 6.52516C7.31276 7.41681 6.13799 8.03504 5.26396 8.61831C4.42053 9.18115 3.95811 9.64813 3.64212 10.1844C3.32373 10.7247 3.12809 11.3798 3.02359 12.4398C2.91611 13.5303 2.9143 14.9184 2.9143 16.909V17.091C2.9143 19.0816 2.91611 20.4697 3.02359 21.5602C3.12809 22.6202 3.32375 23.2753 3.64212 23.8156C3.9581 24.3518 4.42052 24.8189 5.26396 25.3817C6.138 25.965 7.31277 26.5831 9.01308 27.4748L12.1239 29.1061C13.5125 29.8343 14.4691 30.3348 15.2599 30.6616C16.0236 30.9772 16.5355 31.0878 17.0122 31.0878C17.489 31.0878 18.0008 30.9772 18.7646 30.6616C19.5553 30.3348 20.5119 29.8343 21.9005 29.1061L25.0114 27.4748C26.7117 26.5832 27.8865 25.9649 28.7605 25.3817C29.6039 24.8189 30.0663 24.3519 30.3823 23.8156C30.8344 23.0482 31.0298 22.0748 31.0866 20.0677C31.1094 19.2639 31.7797 18.6307 32.584 18.6533C33.3883 18.676 34.022 19.3459 33.9994 20.1496C33.9408 22.2181 33.7481 23.8434 32.8936 25.2937C32.2804 26.3344 31.4416 27.0951 30.3793 27.804C29.3476 28.4925 28.0118 29.1899 26.3653 30.0534V30.0541L23.2544 31.6854C21.9124 32.3892 20.8205 32.9631 19.8787 33.3523C18.91 33.7527 18.0043 34 17.0122 34C16.0202 34 15.1145 33.7527 14.1457 33.3523C13.2039 32.9631 12.1121 32.3892 10.77 31.6854L7.65915 30.0541V30.0534C6.01265 29.1899 4.67686 28.4925 3.64515 27.804C2.58283 27.0951 1.74407 26.3344 1.13081 25.2937C0.520005 24.2572 0.250757 23.1425 0.122949 21.8461C-0.00185924 20.5801 1.5183e-06 19.0247 1.56496e-06 17.091Z" fill="white"/>
<path d="M15.5856 31.5836V18.0951L2.78155 11.6831C2.08324 11.3332 1.80042 10.4824 2.14964 9.78282C2.49899 9.08339 3.34843 8.80011 4.04686 9.14989L16.9997 15.6364L29.9532 9.14989C30.6517 8.8001 31.5011 9.08334 31.8505 9.78282C32.1997 10.4825 31.9163 11.3333 31.2178 11.6831L18.4138 18.0951V31.5836C18.4138 32.3659 17.7807 33 16.9997 33C16.2188 32.9998 15.5856 32.3658 15.5856 31.5836Z" fill="white"/>
</svg>
