<svg width="37" height="39" viewBox="0 0 37 39" fill="none" xmlns="http://www.w3.org/2000/svg">
<circle cx="12.8164" cy="19.5647" r="11.1218" stroke="white" stroke-width="3"/>
<path d="M12.0698 12.416C11.3932 12.6152 11.3335 12.6308 10.7641 13.0361M7.93325 15.2934C6.90954 16.523 6.2878 18.1419 6.2878 19.9157C6.2878 22.9969 8.16388 25.6108 10.7641 26.5285" stroke="white" stroke-width="2" stroke-linecap="round"/>
<path d="M30.3723 12.7224L30.3723 15.2668C30.3723 15.6043 30.5064 15.9278 30.7449 16.1664C30.9835 16.405 31.3071 16.5391 31.6445 16.5391C31.982 16.5391 32.3056 16.405 32.5441 16.1664C32.7827 15.9278 32.9168 15.6043 32.9168 15.2668L32.9168 12.7224L35.4612 12.7224C35.7986 12.7224 36.1222 12.5883 36.3608 12.3498C36.5994 12.1112 36.7335 11.7876 36.7335 11.4502C36.7335 11.1127 36.5994 10.7891 36.3608 10.5505C36.1222 10.312 35.7986 10.1779 35.4612 10.1779L32.9168 10.1779L32.9168 7.63347C32.9168 7.29605 32.7827 6.97245 32.5441 6.73386C32.3056 6.49528 31.982 6.36124 31.6445 6.36124C31.3071 6.36124 30.9835 6.49528 30.7449 6.73386C30.5064 6.97245 30.3723 7.29605 30.3723 7.63347L30.3723 10.1779L27.8279 10.1779C27.4904 10.1779 27.1669 10.312 26.9283 10.5505C26.6897 10.7891 26.5556 11.1127 26.5556 11.4502C26.5556 11.7876 26.6897 12.1112 26.9283 12.3498C27.1669 12.5883 27.4904 12.7224 27.8279 12.7224L30.3723 12.7224Z" fill="white"/>
<path d="M25.2834 2.54456L25.2834 1.27233C25.2834 0.934912 25.1494 0.611313 24.9108 0.372724C24.6722 0.134136 24.3486 0.000100548 24.0112 0.000100533C23.6738 0.000100519 23.3502 0.134136 23.1116 0.372724C22.873 0.611313 22.739 0.934912 22.739 1.27233L22.739 2.54456L21.4667 2.54456C21.1293 2.54456 20.8057 2.67859 20.5671 2.91718C20.3285 3.15577 20.1945 3.47937 20.1945 3.81678C20.1945 4.1542 20.3285 4.4778 20.5671 4.71639C20.8057 4.95498 21.1293 5.08901 21.4667 5.08901L22.739 5.08901L22.739 6.36124C22.739 6.69865 22.873 7.02225 23.1116 7.26084C23.3502 7.49943 23.6738 7.63347 24.0112 7.63347C24.3486 7.63347 24.6722 7.49943 24.9108 7.26084C25.1494 7.02225 25.2834 6.69865 25.2834 6.36124L25.2834 5.08901L26.5556 5.08901C26.8931 5.08901 27.2166 4.95498 27.4552 4.71639C27.6938 4.4778 27.8279 4.1542 27.8279 3.81678C27.8279 3.47937 27.6938 3.15577 27.4552 2.91718C27.2166 2.67859 26.8931 2.54456 26.5556 2.54456L25.2834 2.54456Z" fill="white"/>
<path d="M5.8676 29.8513C6.26036 29.1219 5.98745 28.2122 5.25805 27.8194C4.52864 27.4267 3.61895 27.6996 3.22619 28.429L4.5469 29.1401L5.8676 29.8513ZM1.50024 34.7982L0.179538 34.0871C-0.203773 34.7989 0.0460703 35.6865 0.744438 36.0939L1.50024 34.7982ZM24.1325 34.7982L24.8033 36.1398C25.1662 35.9584 25.4401 35.6377 25.5626 35.2509C25.685 34.8642 25.6456 34.4443 25.4532 34.0871L24.1325 34.7982ZM22.4066 28.429C22.0138 27.6996 21.1041 27.4267 20.3747 27.8194C19.6453 28.2122 19.3724 29.1219 19.7652 29.8513L21.0859 29.1401L22.4066 28.429ZM4.5469 29.1401L3.22619 28.429L0.179538 34.0871L1.50024 34.7982L2.82095 35.5094L5.8676 29.8513L4.5469 29.1401ZM1.50024 34.7982L0.744438 36.0939C2.7128 37.2421 6.71635 38.9096 13.2516 38.9096V37.4096V35.9096C7.25208 35.9096 3.76957 34.3854 2.25605 33.5025L1.50024 34.7982ZM13.2516 37.4096V38.9096C16.518 38.9096 18.8832 38.493 20.7281 37.9165C22.5564 37.3451 23.8451 36.619 24.8033 36.1398L24.1325 34.7982L23.4617 33.4566C22.3889 33.993 21.3707 34.5726 19.8333 35.053C18.3123 35.5283 16.2527 35.9096 13.2516 35.9096V37.4096ZM24.1325 34.7982L25.4532 34.0871L22.4066 28.429L21.0859 29.1401L19.7652 29.8513L22.8118 35.5094L24.1325 34.7982Z" fill="white"/>
</svg>
