<svg width="34" height="34" viewBox="0 0 34 34" fill="none" xmlns="http://www.w3.org/2000/svg">
<path d="M15.833 20.1758C20.9138 20.1758 25.0332 24.2952 25.0332 29.376C25.0331 30.2509 24.7367 31.4279 23.627 32.0801C22.1643 32.9397 19.0548 34 12.5166 34C5.97797 34 2.86794 32.9398 1.40527 32.0801C0.295819 31.4279 0.000103785 30.2509 0 29.376C0 24.2953 4.11859 20.176 9.19922 20.1758H15.833ZM26.9258 21.2334C27.064 20.5246 27.7502 20.062 28.459 20.2002C31.677 20.8278 33.9998 23.647 34 26.9258V27.835C34 28.6397 33.7587 29.786 32.709 30.457C32.0022 30.9089 30.9059 31.3906 29.2158 31.7324C28.5079 31.8757 27.8171 31.4178 27.6738 30.71C27.5308 30.0023 27.9887 29.3124 28.6963 29.1689C30.138 28.8773 30.9177 28.498 31.2998 28.2539L31.3027 28.251C31.3056 28.2474 31.3165 28.2329 31.3291 28.2021C31.3569 28.1344 31.3848 28.0129 31.3848 27.835V26.9258C31.3846 24.8987 29.9485 23.1559 27.959 22.7676C27.2501 22.6292 26.7876 21.9423 26.9258 21.2334ZM9.19922 22.791C5.56303 22.7912 2.61523 25.7396 2.61523 29.376C2.61529 29.5563 2.64646 29.6811 2.67773 29.752C2.70298 29.8089 2.72222 29.8204 2.73047 29.8252C3.62786 30.3525 6.20847 31.3848 12.5166 31.3848C18.8251 31.3848 21.4046 30.3522 22.3018 29.8252C22.3101 29.8203 22.3303 29.8089 22.3555 29.752C22.3868 29.6811 22.4179 29.5563 22.418 29.376C22.418 25.7395 19.4695 22.791 15.833 22.791H9.19922ZM12.5166 0C16.953 4.94791e-05 20.5498 3.59674 20.5498 8.0332C20.5497 12.4696 16.9529 16.0664 12.5166 16.0664C8.08018 16.0664 4.48351 12.4696 4.4834 8.0332C4.4834 3.59671 8.0801 0 12.5166 0ZM23.0234 3.20801C23.212 2.51084 23.9298 2.09869 24.627 2.28711C27.5114 3.06674 29.5165 5.91478 29.5166 9.15332C29.5166 12.5755 27.1705 15.6614 23.8809 16.0566C23.164 16.1424 22.5129 15.631 22.4268 14.9141C22.3406 14.197 22.8523 13.5461 23.5693 13.46C25.3236 13.2492 26.9014 11.4871 26.9014 9.15332C26.9012 6.93925 25.5433 5.24364 23.9443 4.81152C23.2473 4.623 22.8351 3.90514 23.0234 3.20801ZM12.5166 2.61523C9.52455 2.61523 7.09863 5.04115 7.09863 8.0332C7.09875 11.0251 9.52462 13.4502 12.5166 13.4502C15.5086 13.4501 17.9335 11.0251 17.9336 8.0332C17.9336 5.04118 15.5087 2.61528 12.5166 2.61523Z" fill="black"/>
</svg>
