<svg width="31" height="34" viewBox="0 0 31 34" fill="none" xmlns="http://www.w3.org/2000/svg">
<path fill-rule="evenodd" clip-rule="evenodd" d="M22.6171 7.72727C22.5877 7.60255 22.5572 7.47756 22.5253 7.35244C22.1104 5.72031 21.4571 3.94683 20.3917 2.55C19.2931 1.10967 17.6891 0 15.5 0C13.3109 0 11.7068 1.10967 10.6083 2.55C9.54292 3.94683 8.88951 5.72031 8.47457 7.35245C8.44276 7.47756 8.4122 7.60255 8.38279 7.72727H5.86763C3.38542 7.72727 1.32831 9.61976 1.16319 12.0552L0.0106543 29.0552C-0.170759 31.7313 1.98772 34 4.71511 34H26.2848C29.0122 34 31.1707 31.7313 30.9894 29.0552L29.8367 12.0552C29.6717 9.61976 27.6146 7.72727 25.1324 7.72727H22.6171ZM9.21348 15.4545C10.114 15.4545 10.7821 14.7875 10.7851 13.9063C10.7854 13.8695 10.7858 13.8327 10.7864 13.796C10.7878 13.7146 10.7906 13.5916 10.7964 13.433C10.8079 13.1155 10.8312 12.6573 10.8779 12.1056C10.9111 11.7142 10.9558 11.2797 11.0157 10.8182H19.9843C20.0442 11.2797 20.0888 11.7142 20.1222 12.1056C20.1688 12.6573 20.1921 13.1155 20.2036 13.433C20.2094 13.5916 20.2122 13.7146 20.2136 13.796C20.2143 13.8339 20.2147 13.8718 20.2149 13.9097C20.2149 13.9097 20.2149 15.4545 21.7865 15.4545C23.3581 15.4545 23.3581 13.907 23.3581 13.907C23.358 13.8528 23.3574 13.7987 23.3564 13.7445C23.3547 13.6448 23.3514 13.5022 23.3448 13.3227C23.3319 12.964 23.306 12.4564 23.2544 11.8489C23.2277 11.5322 23.1936 11.1862 23.1505 10.8182H25.1324C25.9598 10.8182 26.6455 11.449 26.7005 12.2608L27.853 29.2609C27.9135 30.1529 27.194 30.9091 26.2848 30.9091H4.71511C3.80598 30.9091 3.08649 30.1529 3.14695 29.2609L4.29949 12.2608C4.35453 11.449 5.04023 10.8182 5.86763 10.8182H7.84943C7.80632 11.1862 7.77234 11.5322 7.74549 11.8489C7.69402 12.4564 7.66815 12.964 7.65513 13.3227C7.6486 13.5022 7.64529 13.6448 7.64361 13.7445C7.64269 13.7976 7.64202 13.8507 7.64185 13.9038C7.64065 14.7857 8.31502 15.4545 9.21348 15.4545ZM11.6236 7.72727H19.3764C19.0131 6.41861 18.5191 5.24629 17.8771 4.40455C17.2076 3.5267 16.4541 3.09091 15.5 3.09091C14.5459 3.09091 13.7924 3.5267 13.1229 4.40455C12.4809 5.24629 11.987 6.41861 11.6236 7.72727Z" fill="white"/>
</svg>
