<svg width="383" height="426" viewBox="0 0 383 426" fill="none" xmlns="http://www.w3.org/2000/svg">
<path d="M85.8788 367.232C78.3151 362.217 70.6465 335.889 67.7576 323.351L74.0606 311.598L297.03 323.351L341.151 24.0249C347.454 26.6368 373.454 34.2114 373.454 34.2114C383.539 36.092 383.171 49.3606 382.909 53.8008L346.666 349.209C345.406 369.896 321.717 377.418 312 376.635L85.8788 367.232Z" fill="#708848"/>
<path d="M371.879 46.7488C370.565 42.8309 360.06 40.4802 360.06 40.4802L340.363 34.9951L289.939 333.538L105.576 321.784C101.374 318.389 91.7091 315.046 86.6667 328.836C81.6242 342.627 94.5454 353.911 101.636 357.829C168.606 359.918 305.539 363.941 317.515 363.314C329.491 362.687 334.06 351.56 334.848 346.075L371.879 61.6367C371.879 61.6367 373.454 51.4502 371.879 46.7488Z" fill="black"/>
<path d="M208.788 0.517664C151.43 -1.98978 127.636 5.21913 122.909 9.13701C104 112.83 66.3394 320.531 66.9697 321.784L282.06 338.239C301.6 341.374 309.111 326.486 310.424 318.65L347.454 34.2115C349.03 15.4056 335.374 9.92059 325.394 9.13701C310.424 7.30867 266.145 3.02511 208.788 0.517664Z" fill="#708848"/>
<path d="M310.424 67.1216H146.545L119.642 221.486C119.642 221.486 116.821 234.807 121.333 239.509C126.441 244.831 134.727 244.569 134.727 244.569L269.454 252.709C269.454 252.709 277.43 254.045 282.06 250.479C286.972 246.696 286.609 237.941 286.609 237.941L310.424 67.1216Z" fill="white"/>
<path d="M54.8246 119.777L136.969 65.7244L193.786 65.8419L116.067 121.394L54.8246 119.777Z" fill="#FF7700"/>
<path d="M176.126 122.918L114.885 121.301L192.603 65.7501L251.787 65.8725L176.126 122.918Z" fill="#F5F5F5"/>
<path d="M312.933 65.6822L235.776 124.166L176.51 122.601L252.171 65.5565L312.933 65.6822Z" fill="#FF7700"/>
<path d="M204.451 153.211C220.701 153.628 235.336 139.95 235.746 123.801L176.473 122.39C176.064 138.54 188.201 152.794 204.451 153.211Z" fill="#B55500"/>
<path d="M144.249 151.654C159.468 152.119 176.073 138.557 176.483 122.408L114.85 121.129C114.519 137.164 129.03 151.188 144.249 151.654Z" fill="#C4C4C4"/>
<path d="M84.3514 150.513C100.601 150.93 114.45 137.296 114.859 121.147L54.8006 119.78C54.3908 135.929 68.1014 150.095 84.3514 150.513Z" fill="#B55500"/>
<path d="M174.121 343.725H130.788C122.594 368.799 122.121 407.456 122.909 423.649L145.757 397.791L169.394 426C166.873 421.612 171.495 369.321 174.121 343.725Z" fill="#FF7700"/>
<path d="M288.36 239.376L262.47 253.21L284.373 293.756L267.902 302.557L245.998 262.011L218.461 276.725L220.888 197.848L288.36 239.376Z" fill="#708848"/>
<path d="M307.261 239.95L275.273 257.042L297.177 297.588L264.048 315.29L242.144 274.744L208.51 292.716L211.939 181.281L307.261 239.95ZM284.374 293.755L262.47 253.209L288.36 239.375L220.888 197.848L218.461 276.724L245.998 262.011L267.902 302.557L284.374 293.755Z" fill="white"/>
<path d="M87.3876 50.0512C90.2317 51.0171 90.2316 55.0175 87.3876 55.9834L66.4574 63.0918C65.534 63.4054 64.8088 64.1267 64.4934 65.045L57.346 85.861C56.3748 88.6895 52.3524 88.6895 51.3812 85.861L44.2338 65.045C43.9185 64.1267 43.1933 63.4054 42.2699 63.0918L21.3397 55.9834C18.4956 55.0175 18.4956 51.0171 21.3397 50.0512L42.2699 42.9428C43.1933 42.6292 43.9185 41.9079 44.2338 40.9896L51.3812 20.1737C52.3524 17.3451 56.3748 17.3451 57.3461 20.1737L64.4934 40.9896C64.8088 41.9079 65.534 42.6292 66.4574 42.9428L87.3876 50.0512Z" fill="#708848"/>
<path d="M33.4513 88.3623C34.8733 88.8453 34.8733 90.8455 33.4513 91.3284L24.4545 94.3839C23.9928 94.5407 23.6302 94.9014 23.4725 95.3606L20.4002 104.308C19.9146 105.723 17.9034 105.723 17.4178 104.308L14.3455 95.3606C14.1879 94.9014 13.8252 94.5407 13.3635 94.3839L4.36675 91.3284C2.94471 90.8455 2.94471 88.8453 4.36675 88.3623L13.3635 85.3068C13.8252 85.15 14.1879 84.7893 14.3455 84.3302L17.4178 75.3825C17.9034 73.9682 19.9146 73.9682 20.4002 75.3825L23.4725 84.3302C23.6302 84.7893 23.9928 85.15 24.4545 85.3068L33.4513 88.3623Z" fill="#708848"/>
</svg>
