<svg width="38" height="38" viewBox="0 0 38 38" fill="none" xmlns="http://www.w3.org/2000/svg">
<path d="M34.8333 5.62073V11.0832C34.8333 11.5032 34.6665 11.9059 34.3696 12.2028C34.0726 12.4997 33.6699 12.6666 33.25 12.6666H27.7083C27.4788 12.6692 27.2515 12.6218 27.0421 12.5279C26.8327 12.4339 26.6462 12.2955 26.4956 12.1223C26.345 11.9491 26.2338 11.7452 26.1698 11.5248C26.1059 11.3044 26.0906 11.0727 26.125 10.8457C26.1995 10.4616 26.407 10.1161 26.7111 9.86995C27.0152 9.62378 27.3963 9.49275 27.7875 9.4999H29.6083C27.7641 7.44614 25.3632 5.97218 22.6971 5.25713C20.0311 4.54208 17.2148 4.61671 14.5904 5.47195C11.966 6.32719 9.64643 7.92622 7.91359 10.0748C6.18075 12.2233 5.10921 14.8289 4.82916 17.5749C4.78978 17.9668 4.60573 18.33 4.31296 18.5935C4.02018 18.857 3.63971 19.0019 3.24583 18.9999C3.02388 19.001 2.80418 18.9554 2.60098 18.8662C2.39778 18.7769 2.21562 18.6459 2.06632 18.4817C1.91702 18.3174 1.80391 18.1236 1.73435 17.9129C1.66478 17.7021 1.6403 17.4791 1.66249 17.2582C1.99502 13.9341 3.27655 10.7758 5.35426 8.15978C7.43197 5.54378 10.2182 3.58052 13.3807 2.5041C16.5433 1.42767 19.9487 1.28348 23.1909 2.08874C26.4331 2.894 29.3753 4.61472 31.6667 7.04573V5.54156C31.6641 5.31205 31.7114 5.08472 31.8054 4.87532C31.8994 4.66592 32.0377 4.47945 32.2109 4.32884C32.3841 4.17823 32.588 4.06708 32.8084 4.00309C33.0289 3.93909 33.2606 3.92379 33.4875 3.95823C33.8716 4.03269 34.2171 4.24022 34.4633 4.54431C34.7094 4.84839 34.8405 5.22956 34.8333 5.62073Z" fill="black"/>
<path d="M3.16666 32.3792V26.9167C3.16666 26.4968 3.33347 26.094 3.63041 25.7971C3.92734 25.5002 4.33007 25.3334 4.74999 25.3334H10.2917C10.5212 25.3308 10.7485 25.3781 10.9579 25.4721C11.1673 25.566 11.3538 25.7044 11.5044 25.8776C11.655 26.0508 11.7661 26.2547 11.8301 26.4751C11.8941 26.6956 11.9094 26.9273 11.875 27.1542C11.8005 27.5383 11.593 27.8838 11.2889 28.13C10.9848 28.3761 10.6037 28.5072 10.2125 28.5H8.39166C10.2359 30.5538 12.6368 32.0277 15.3028 32.7428C17.9689 33.4578 20.7852 33.3832 23.4096 32.528C26.034 31.6727 28.3536 30.0737 30.0864 27.9251C31.8192 25.7766 32.8908 23.171 33.1708 20.425C33.2102 20.0331 33.3943 19.6699 33.687 19.4065C33.9798 19.143 34.3603 18.998 34.7542 19C34.9761 18.9989 35.1958 19.0445 35.399 19.1338C35.6022 19.223 35.7844 19.354 35.9337 19.5183C36.083 19.6825 36.1961 19.8763 36.2656 20.087C36.3352 20.2978 36.3597 20.5208 36.3375 20.7417C36.005 24.0658 34.7234 27.2241 32.6457 29.8401C30.568 32.4561 27.7818 34.4194 24.6193 35.4958C21.4567 36.5723 18.0513 36.7164 14.8091 35.9112C11.5669 35.1059 8.62472 33.3852 6.33333 30.9542V32.4584C6.33593 32.6879 6.28859 32.9152 6.19461 33.1246C6.10063 33.334 5.96225 33.5205 5.78904 33.6711C5.61584 33.8217 5.41197 33.9328 5.19154 33.9968C4.97112 34.0608 4.73942 34.0761 4.51249 34.0417C4.1284 33.9672 3.78288 33.7597 3.53671 33.4556C3.29055 33.1515 3.15951 32.7704 3.16666 32.3792Z" fill="black"/>
<path d="M19.5542 17.4168C16.7833 16.8627 16.7833 16.3877 16.7833 15.9918C16.7833 15.596 16.9417 15.5168 17.1792 15.2793C17.6159 15.0445 18.1091 14.9349 18.6042 14.9627C19.524 14.9547 20.4282 15.2013 21.2167 15.6752C21.3769 15.8059 21.5637 15.9003 21.7641 15.9516C21.9645 16.0029 22.1737 16.01 22.3771 15.9723C22.5805 15.9346 22.7732 15.8531 22.942 15.7335C23.1107 15.6138 23.2514 15.4588 23.3542 15.2793C23.4899 15.1174 23.5899 14.9288 23.6479 14.7257C23.7058 14.5225 23.7203 14.3095 23.6905 14.1003C23.6606 13.8912 23.587 13.6907 23.4745 13.512C23.362 13.3332 23.2131 13.1801 23.0375 13.0627C22.2847 12.598 21.4528 12.276 20.5833 12.1127V10.2918C20.5833 9.8719 20.4165 9.46918 20.1196 9.17224C19.8226 8.87531 19.4199 8.7085 19 8.7085C18.5801 8.7085 18.1773 8.87531 17.8804 9.17224C17.5835 9.46918 17.4167 9.8719 17.4167 10.2918V12.0335C15.0417 12.4293 13.4583 14.0127 13.4583 16.1502C13.4583 18.2877 16.0708 20.0293 18.6042 20.5043C21.1375 20.9793 21.2167 21.5335 21.2167 21.9293C21.2167 22.3252 20.3458 23.0377 19.2375 23.0377C18.0718 23.0607 16.9311 22.699 15.9917 22.0085C15.8157 21.8915 15.6182 21.8109 15.4107 21.7715C15.2031 21.732 14.9898 21.7345 14.7832 21.7788C14.5766 21.823 14.381 21.9082 14.2079 22.0292C14.0347 22.1503 13.8875 22.3047 13.775 22.4835C13.6502 22.632 13.557 22.8044 13.5011 22.9902C13.4452 23.1759 13.4279 23.3711 13.4501 23.5639C13.4724 23.7566 13.5337 23.9427 13.6304 24.1109C13.7271 24.279 13.8571 24.4257 14.0125 24.5418C15.0312 25.2568 16.1925 25.7429 17.4167 25.9668V27.7085C17.4167 28.1284 17.5835 28.5312 17.8804 28.8281C18.1773 29.125 18.5801 29.2918 19 29.2918C19.4199 29.2918 19.8226 29.125 20.1196 28.8281C20.4165 28.5312 20.5833 28.1284 20.5833 27.7085V25.9668C21.4518 25.8388 22.271 25.4837 22.9583 24.9377C23.4546 24.5733 23.857 24.0961 24.1323 23.5455C24.4077 22.9949 24.548 22.3866 24.5417 21.771C24.5417 18.8418 21.85 17.8918 19.5542 17.4168Z" fill="black"/>
</svg>
