<svg width="33" height="31" viewBox="0 0 33 31" fill="none" xmlns="http://www.w3.org/2000/svg">
<path fill-rule="evenodd" clip-rule="evenodd" d="M6.89324 0C5.41914 0 4.05314 0.779086 3.29473 2.05236L0.575188 6.61811C-0.0369715 7.64584 -0.269247 9.0541 0.425541 10.3147C0.81845 11.0276 1.49677 12.0503 2.51151 12.8516V26.7727C2.51151 29.1074 4.39037 31 6.70806 31H10.9046C12.4497 31 13.7023 29.7383 13.7023 28.1818V19.7273H19.2977V28.1818C19.2977 29.7383 20.5502 31 22.0954 31H26.292C28.6097 31 30.4885 29.1074 30.4885 26.7727V12.8516C31.5032 12.0503 32.1815 11.0276 32.5745 10.3147C33.2693 9.05408 33.0369 7.64584 32.4248 6.61811L29.7053 2.05236C28.9468 0.779086 27.5809 0 26.1067 0H6.89324ZM27.6908 14.0482C27.4657 14.0761 27.2327 14.0909 26.9914 14.0909C25.0692 14.0909 23.6518 13.135 22.7059 12.125C22.4636 11.8661 22.2468 11.5985 22.0541 11.3337C20.9997 12.6651 19.2336 14.0909 16.5 14.0909C13.7664 14.0909 12.0003 12.6651 10.9459 11.3337C10.7533 11.5985 10.5365 11.8661 10.2941 12.125C9.34825 13.135 7.93072 14.0909 6.00863 14.0909C5.76736 14.0909 5.53427 14.0761 5.30921 14.0482V26.7727C5.30921 27.551 5.9355 28.1818 6.70806 28.1818H10.9046V19.7273C10.9046 18.1708 12.1572 16.9091 13.7023 16.9091H19.2977C20.8429 16.9091 22.0954 18.1708 22.0954 19.7273V28.1818H26.292C27.0645 28.1818 27.6908 27.551 27.6908 26.7727V14.0482ZM5.69374 3.5023C5.94654 3.07788 6.40188 2.81818 6.89324 2.81818H26.1067C26.5982 2.81818 27.0535 3.07788 27.3063 3.5023L30.0258 8.06805C30.2541 8.45123 30.2265 8.76891 30.1284 8.94684C29.4885 10.108 28.4592 11.2727 26.9914 11.2727C26.0749 11.2727 25.3449 10.836 24.7411 10.1912C24.1246 9.53284 23.7263 8.7419 23.534 8.29108C23.2304 7.58022 22.5611 7.34683 22.1 7.34486C21.6394 7.3429 20.9738 7.56924 20.6619 8.26897C20.2352 9.22608 19.0154 11.2727 16.5 11.2727C13.9846 11.2727 12.7648 9.22608 12.3382 8.26897C12.0262 7.56924 11.3606 7.3429 10.9 7.34486C10.4389 7.34683 9.76951 7.58022 9.46609 8.29108C9.27365 8.7419 8.87544 9.53284 8.25895 10.1912C7.65512 10.836 6.92522 11.2727 6.00863 11.2727C4.54075 11.2727 3.51156 10.108 2.87157 8.94684C2.77351 8.76891 2.74596 8.45123 2.97419 8.06805L5.69374 3.5023Z" fill="white"/>
</svg>
