<svg width="35" height="34" viewBox="0 0 35 34" fill="none" xmlns="http://www.w3.org/2000/svg">
<path d="M34.307 24.0089L32.2066 23.017C31.9148 22.842 31.5064 22.842 31.2147 23.017L18.6705 28.9682C17.9703 29.3183 17.0951 29.3183 16.395 28.9682L3.79244 23.017C3.50071 22.842 3.0923 22.842 2.80057 23.017L0.700143 24.0089C-0.233381 24.4756 -0.233381 25.7009 0.700143 26.1677L16.3367 33.5775C17.0368 33.9276 17.912 33.9276 18.6121 33.5775L34.2486 26.1677C35.2405 25.7009 35.2405 24.4173 34.307 24.0089Z" fill="black"/>
<path d="M34.307 15.8409L32.1482 14.8491C31.8565 14.674 31.4481 14.674 31.1563 14.8491L18.6705 20.8003C17.9703 21.1503 17.0951 21.1503 16.395 20.8003L3.85078 14.8491C3.55906 14.674 3.15064 14.674 2.85891 14.8491L0.700143 15.8409C-0.233381 16.3077 -0.233381 17.5329 0.700143 17.9997L16.3367 25.4679C17.0368 25.8179 17.912 25.8179 18.6121 25.4679L34.2486 18.058C35.2405 17.5913 35.2405 16.3077 34.307 15.8409Z" fill="black"/>
<path d="M0.700143 9.83117L16.3367 17.241C17.0368 17.5911 17.912 17.5911 18.6121 17.241L34.2486 9.83117C35.1822 9.36441 35.1822 8.13916 34.2486 7.67239L18.6121 0.262553C17.912 -0.0875178 17.0368 -0.0875178 16.3367 0.262553L0.700143 7.73074C-0.233381 8.13916 -0.233381 9.42275 0.700143 9.83117Z" fill="black"/>
</svg>
