<svg width="28" height="31" viewBox="0 0 28 31" fill="none" xmlns="http://www.w3.org/2000/svg">
<path d="M10.75 15.5L17.25 21.9444M17.25 15.5L10.75 21.9444M1 5.83333H27M20.5 5.83333L20.0603 4.52522C19.634 3.25757 19.4208 2.62374 19.0256 2.15513C18.6766 1.74132 18.2284 1.42102 17.7221 1.22359C17.1486 1 16.4749 1 15.1271 1H12.8729C11.5251 1 10.8514 1 10.278 1.22359C9.77162 1.42102 9.32338 1.74132 8.97435 2.15513C8.57908 2.62374 8.366 3.25757 7.93979 4.52522L7.5 5.83333M23.75 5.83333V22.2667C23.75 24.9737 23.75 26.327 23.2186 27.361C22.7513 28.2705 22.0056 29.0098 21.0882 29.4732C20.0453 30 18.6803 30 15.95 30H12.05C9.31974 30 7.95461 30 6.9118 29.4732C5.9945 29.0098 5.24873 28.2705 4.78134 27.361C4.25 26.327 4.25 24.9737 4.25 22.2667V5.83333" stroke="#FF0000" stroke-width="2" stroke-linecap="round" stroke-linejoin="round"/>
</svg>
